# xmcd
#
# Track frame offsets:
#       150
#       14335
#       25642
#       37337
#       49211
#       66610
#       80699
#       95012
#       109129
#       125380
#       145474
#       163618
#       175857
#       183680
#       197926
#       212266
#       219814
#       235898
#       249174
#       263807
#
# Disc length: 3674 seconds
#
# Revision: 0
# Processed by: cddbd v1.4PL0 Copyright (c) Steve Scherf et al.
# Submitted via: CD-DA_X-Tractor v0.21
#
DISCID=250e5814
DTITLE=Kris De Bruyne - Het Beste Van Kris De Bruyne
DYEAR=1900
DGENRE=
TTITLE0=Vilvoorde City
TTITLE1='s Nachts Als Het Donker Is
TTITLE2=Als Je Weggaat
TTITLE3=Amsterdam
TTITLE4=Ik Wil Wel (Met Je Meegaan)
TTITLE5=Als Ik Ooit Voor De Keuze Stond
TTITLE6=Barbara (Breakaway)
TTITLE7=Het Varken Van De Hoge Venen
TTITLE8=Waar Ik Voor Leef
TTITLE9=Ik Geloof In Jou (I Believe In You)
TTITLE10=Ballerina's
TTITLE11=Het Geheim
TTITLE12=Lieve Jacoba
TTITLE13=Prachtig Nieuw Lief
TTITLE14=De Wrede God
TTITLE15=Kortenberg
TTITLE16=Castelli Di Cannero
TTITLE17=Lydia d'Ile d'Yeu
TTITLE18=Je Suis Gaga
TTITLE19=De Peulschil - Lamp, Lazarus and Kris
EXTD=
EXTT0=
EXTT1=
EXTT2=
EXTT3=
EXTT4=
EXTT5=
EXTT6=
EXTT7=
EXTT8=
EXTT9=
EXTT10=
EXTT11=
EXTT12=
EXTT13=
EXTT14=
EXTT15=
EXTT16=
EXTT17=
EXTT18=
EXTT19=
PLAYORDER=
